<svg xmlns="http://www.w3.org/2000/svg" viewBox="0 0 185 185"><defs><style>.cls-1{fill:#fff;stroke:#231f20;stroke-linejoin:round;stroke-width:4px;}.cls-2{fill:none;stroke:#010101;stroke-linecap:round;stroke-miterlimit:10;stroke-width:5px;}</style></defs><title>abstraction</title><g id="Layer_2" data-name="Layer 2"><g id="Layer_1-2" data-name="Layer 1"><rect class="cls-1" x="2" y="2" width="181" height="181"/><line class="cls-2" x1="92.5" y1="153.5" x2="92.5" y2="94.5"/><line class="cls-2" x1="92.43" y1="94.74" x2="121.92" y2="74.09"/><line class="cls-2" x1="121.92" y1="74.09" x2="142.22" y2="81.48"/><line class="cls-2" x1="142.22" y1="81.48" x2="145.57" y2="94"/><line class="cls-2" x1="145.57" y1="94" x2="140.57" y2="99.95"/><line class="cls-2" x1="140.57" y1="99.95" x2="135.92" y2="99.55"/><line class="cls-2" x1="135.92" y1="99.55" x2="134.53" y2="97.12"/><line class="cls-2" x1="135.92" y1="99.55" x2="134.13" y2="101.69"/><line class="cls-2" x1="140.57" y1="99.95" x2="141.78" y2="104.46"/><line class="cls-2" x1="141.78" y1="104.46" x2="139.98" y2="106.61"/><line class="cls-2" x1="141.78" y1="104.46" x2="144.41" y2="105.42"/><line class="cls-2" x1="145.57" y1="94" x2="152.88" y2="96.66"/><line class="cls-2" x1="152.88" y1="96.66" x2="154.09" y2="101.16"/><line class="cls-2" x1="154.09" y1="101.16" x2="152.29" y2="103.31"/><line class="cls-2" x1="154.09" y1="101.16" x2="156.72" y2="102.12"/><line class="cls-2" x1="152.88" y1="96.66" x2="156.7" y2="93.98"/><line class="cls-2" x1="156.7" y1="93.98" x2="159.33" y2="94.94"/><line class="cls-2" x1="156.5" y1="93.5" x2="156.5" y2="91.5"/><line class="cls-2" x1="142.22" y1="81.48" x2="152.83" y2="74.05"/><line class="cls-2" x1="152.83" y1="74.05" x2="160.14" y2="76.7"/><line class="cls-2" x1="160.14" y1="76.7" x2="161.35" y2="81.21"/><line class="cls-2" x1="161.35" y1="81.21" x2="159.55" y2="83.36"/><line class="cls-2" x1="161.35" y1="81.21" x2="163.98" y2="82.17"/><line class="cls-2" x1="160.14" y1="76.7" x2="163.96" y2="74.03"/><line class="cls-2" x1="163.96" y1="74.03" x2="166.59" y2="74.99"/><line class="cls-2" x1="163.5" y1="74.5" x2="163.5" y2="71.5"/><line class="cls-2" x1="152.5" y1="74.5" x2="152.5" y2="66.5"/><line class="cls-2" x1="152.83" y1="66.27" x2="156.65" y2="63.59"/><line class="cls-2" x1="156.65" y1="63.59" x2="159.29" y2="64.55"/><line class="cls-2" x1="156.5" y1="63.5" x2="156.5" y2="60.5"/><line class="cls-2" x1="152.83" y1="66.27" x2="149.01" y2="63.59"/><line class="cls-2" x1="149.5" y1="63.5" x2="149.5" y2="60.5"/><line class="cls-2" x1="149.01" y1="63.59" x2="146.38" y2="64.55"/><line class="cls-2" x1="121.5" y1="74.5" x2="121.5" y2="52.5"/><line class="cls-2" x1="121.92" y1="52.49" x2="132.54" y2="45.06"/><line class="cls-2" x1="132.54" y1="45.06" x2="139.84" y2="47.72"/><line class="cls-2" x1="139.84" y1="47.72" x2="141.05" y2="52.22"/><line class="cls-2" x1="141.05" y1="52.22" x2="139.25" y2="54.37"/><line class="cls-2" x1="141.05" y1="52.22" x2="143.68" y2="53.18"/><line class="cls-2" x1="139.84" y1="47.72" x2="143.66" y2="45.04"/><line class="cls-2" x1="143.66" y1="45.04" x2="146.3" y2="46"/><line class="cls-2" x1="143.5" y1="45.5" x2="143.5" y2="42.5"/><line class="cls-2" x1="132.5" y1="45.5" x2="132.5" y2="37.5"/><line class="cls-2" x1="132.54" y1="37.28" x2="136.36" y2="34.61"/><line class="cls-2" x1="136.36" y1="34.61" x2="138.99" y2="35.56"/><line class="cls-2" x1="136.5" y1="34.5" x2="136.5" y2="31.5"/><line class="cls-2" x1="132.54" y1="37.28" x2="128.71" y2="34.61"/><line class="cls-2" x1="128.5" y1="34.5" x2="128.5" y2="31.5"/><line class="cls-2" x1="128.71" y1="34.61" x2="126.08" y2="35.56"/><line class="cls-2" x1="121.92" y1="52.49" x2="111.3" y2="45.06"/><line class="cls-2" x1="111.5" y1="45.5" x2="111.5" y2="37.5"/><line class="cls-2" x1="111.3" y1="37.28" x2="115.13" y2="34.61"/><line class="cls-2" x1="115.13" y1="34.61" x2="117.76" y2="35.56"/><line class="cls-2" x1="115.5" y1="34.5" x2="115.5" y2="31.5"/><line class="cls-2" x1="111.3" y1="37.28" x2="107.48" y2="34.61"/><line class="cls-2" x1="107.5" y1="34.5" x2="107.5" y2="31.5"/><line class="cls-2" x1="107.48" y1="34.61" x2="104.85" y2="35.56"/><line class="cls-2" x1="111.3" y1="45.06" x2="104" y2="47.72"/><line class="cls-2" x1="104" y1="47.72" x2="100.17" y2="45.04"/><line class="cls-2" x1="100.5" y1="45.5" x2="100.5" y2="42.5"/><line class="cls-2" x1="100.17" y1="45.04" x2="97.54" y2="46"/><line class="cls-2" x1="104" y1="47.72" x2="102.79" y2="52.22"/><line class="cls-2" x1="102.79" y1="52.22" x2="100.16" y2="53.18"/><line class="cls-2" x1="102.79" y1="52.22" x2="104.59" y2="54.37"/><line class="cls-2" x1="92.43" y1="94.74" x2="62.94" y2="74.09"/><line class="cls-2" x1="62.5" y1="74.5" x2="62.5" y2="52.5"/><line class="cls-2" x1="62.94" y1="52.49" x2="73.56" y2="45.06"/><line class="cls-2" x1="73.56" y1="45.06" x2="80.86" y2="47.72"/><line class="cls-2" x1="80.86" y1="47.72" x2="82.07" y2="52.22"/><line class="cls-2" x1="82.07" y1="52.22" x2="80.27" y2="54.37"/><line class="cls-2" x1="82.07" y1="52.22" x2="84.7" y2="53.18"/><line class="cls-2" x1="80.86" y1="47.72" x2="84.69" y2="45.04"/><line class="cls-2" x1="84.69" y1="45.04" x2="87.32" y2="46"/><line class="cls-2" x1="84.5" y1="45.5" x2="84.5" y2="42.5"/><line class="cls-2" x1="73.5" y1="45.5" x2="73.5" y2="37.5"/><line class="cls-2" x1="73.56" y1="37.28" x2="77.38" y2="34.61"/><line class="cls-2" x1="77.38" y1="34.61" x2="80.01" y2="35.56"/><line class="cls-2" x1="77.5" y1="34.5" x2="77.5" y2="31.5"/><line class="cls-2" x1="73.56" y1="37.28" x2="69.73" y2="34.61"/><line class="cls-2" x1="69.5" y1="34.5" x2="69.5" y2="31.5"/><line class="cls-2" x1="69.73" y1="34.61" x2="67.1" y2="35.56"/><line class="cls-2" x1="62.94" y1="52.49" x2="52.32" y2="45.06"/><line class="cls-2" x1="52.5" y1="45.5" x2="52.5" y2="37.5"/><line class="cls-2" x1="52.32" y1="37.28" x2="56.15" y2="34.61"/><line class="cls-2" x1="56.15" y1="34.61" x2="58.78" y2="35.56"/><line class="cls-2" x1="56.5" y1="34.5" x2="56.5" y2="31.5"/><line class="cls-2" x1="52.32" y1="37.28" x2="48.5" y2="34.61"/><line class="cls-2" x1="48.5" y1="34.5" x2="48.5" y2="31.5"/><line class="cls-2" x1="48.5" y1="34.61" x2="45.87" y2="35.56"/><line class="cls-2" x1="52.32" y1="45.06" x2="45.02" y2="47.72"/><line class="cls-2" x1="45.02" y1="47.72" x2="41.2" y2="45.04"/><line class="cls-2" x1="41.5" y1="45.5" x2="41.5" y2="42.5"/><line class="cls-2" x1="41.2" y1="45.04" x2="38.56" y2="46"/><line class="cls-2" x1="45.02" y1="47.72" x2="43.81" y2="52.22"/><line class="cls-2" x1="43.81" y1="52.22" x2="41.18" y2="53.18"/><line class="cls-2" x1="43.81" y1="52.22" x2="45.61" y2="54.37"/><line class="cls-2" x1="62.94" y1="74.09" x2="42.64" y2="81.48"/><line class="cls-2" x1="42.64" y1="81.48" x2="32.03" y2="74.05"/><line class="cls-2" x1="32.5" y1="74.5" x2="32.5" y2="66.5"/><line class="cls-2" x1="32.03" y1="66.27" x2="35.85" y2="63.59"/><line class="cls-2" x1="35.85" y1="63.59" x2="38.48" y2="64.55"/><line class="cls-2" x1="35.5" y1="63.5" x2="35.5" y2="60.5"/><line class="cls-2" x1="32.03" y1="66.27" x2="28.21" y2="63.59"/><line class="cls-2" x1="28.5" y1="63.5" x2="28.5" y2="60.5"/><line class="cls-2" x1="28.21" y1="63.59" x2="25.57" y2="64.55"/><line class="cls-2" x1="32.03" y1="74.05" x2="24.72" y2="76.7"/><line class="cls-2" x1="24.72" y1="76.7" x2="20.9" y2="74.03"/><line class="cls-2" x1="20.5" y1="74.5" x2="20.5" y2="71.5"/><line class="cls-2" x1="20.9" y1="74.03" x2="18.27" y2="74.99"/><line class="cls-2" x1="24.72" y1="76.7" x2="23.51" y2="81.21"/><line class="cls-2" x1="23.51" y1="81.21" x2="20.88" y2="82.17"/><line class="cls-2" x1="23.51" y1="81.21" x2="25.31" y2="83.36"/><line class="cls-2" x1="42.64" y1="81.48" x2="39.29" y2="94"/><line class="cls-2" x1="39.29" y1="94" x2="31.98" y2="96.66"/><line class="cls-2" x1="31.98" y1="96.66" x2="28.16" y2="93.98"/><line class="cls-2" x1="28.5" y1="93.5" x2="28.5" y2="91.5"/><line class="cls-2" x1="28.16" y1="93.98" x2="25.53" y2="94.94"/><line class="cls-2" x1="31.98" y1="96.66" x2="30.77" y2="101.16"/><line class="cls-2" x1="30.77" y1="101.16" x2="28.14" y2="102.12"/><line class="cls-2" x1="30.77" y1="101.16" x2="32.57" y2="103.31"/><line class="cls-2" x1="39.29" y1="94" x2="44.29" y2="99.95"/><line class="cls-2" x1="44.29" y1="99.95" x2="43.08" y2="104.46"/><line class="cls-2" x1="43.08" y1="104.46" x2="40.45" y2="105.42"/><line class="cls-2" x1="43.08" y1="104.46" x2="44.88" y2="106.61"/><line class="cls-2" x1="44.29" y1="99.95" x2="48.94" y2="99.55"/><line class="cls-2" x1="48.94" y1="99.55" x2="50.73" y2="101.69"/><line class="cls-2" x1="48.94" y1="99.55" x2="50.33" y2="97.12"/></g></g></svg>