<svg xmlns="http://www.w3.org/2000/svg" viewBox="0 0 185 185"><defs><style>.cls-1,.cls-2{fill:#fff;}.cls-1,.cls-2,.cls-3{stroke:#231f20;stroke-linejoin:round;}.cls-1{stroke-width:4px;}.cls-2,.cls-3{stroke-linecap:round;stroke-width:6px;}.cls-3{fill:none;}</style></defs><title>algorithm</title><g id="Layer_2" data-name="Layer 2"><g id="Layer_1-2" data-name="Layer 1"><rect class="cls-1" x="2" y="2" width="181" height="181"/><rect class="cls-2" x="24" y="24" width="30" height="30"/><circle class="cls-2" cx="111" cy="39" r="15"/><polyline class="cls-2" points="54 39 75.47 39 96 39"/><path class="cls-3" d="M75.47,39l1.11,63.45s3.44-40,57.16-40"/><polygon class="cls-3" points="154.69 50 141.41 50 134.77 61.5 141.41 73 154.69 73 161.33 61.5 154.69 50"/><polygon class="cls-3" points="76.58 102.96 68.64 93 87.42 93 76.58 102.96"/><polygon class="cls-3" points="78.03 129.48 83.28 140.12 95.02 141.82 86.52 150.1 88.53 161.79 78.03 156.27 67.53 161.79 69.54 150.1 61.05 141.82 72.78 140.12 78.03 129.48"/></g></g></svg>