<svg xmlns="http://www.w3.org/2000/svg" viewBox="0 0 185 185"><defs><style>.cls-1,.cls-3{fill:#fff;stroke:#231f20;}.cls-1,.cls-2,.cls-3{stroke-linejoin:round;}.cls-1{stroke-width:4px;}.cls-2{fill:#231f20;stroke:#fff;}.cls-2,.cls-3{stroke-width:6px;}</style></defs><title>citizen</title><g id="Layer_2" data-name="Layer 2"><g id="Layer_1-2" data-name="Layer 1"><rect class="cls-1" x="2" y="2" width="181" height="181"/><rect class="cls-2" x="119" y="79" width="53" height="15"/><rect class="cls-2" x="119" y="95" width="53" height="15"/><rect class="cls-2" x="119" y="109" width="53" height="15"/><polygon class="cls-2" points="80.66 60 79.6 60 80.13 59.47 80.66 60"/><polygon class="cls-2" points="95.87 44 94.81 44 95.34 43.47 95.87 44"/><path class="cls-3" d="M88.94,144.6h0a10.61,10.61,0,0,1-15,0L34.34,105H15V90H49.34l39.6,39.6A10.61,10.61,0,0,1,88.94,144.6Z"/><path class="cls-3" d="M110,134.71h0a10.61,10.61,0,0,1-15,0L49.34,89H15V74H64.34L110,119.7A10.61,10.61,0,0,1,110,134.71Z"/><path class="cls-3" d="M131.43,126.6h0a10.6,10.6,0,0,1-15,0L64.83,75H15V60H79.82l51.61,51.61A10.6,10.6,0,0,1,131.43,126.6Z"/><path class="cls-3" d="M153,118.1h0a10.61,10.61,0,0,1-15,0L79.87,60H15V45H94.87L153,103.1A10.61,10.61,0,0,1,153,118.1Z"/><rect class="cls-2" x="30.24" y="91.95" width="21.5" height="24.08" rx="10.75" ry="10.75" transform="translate(85.54 1.48) rotate(45)"/><path class="cls-2" d="M171,64V80H118.37l-.54.54L92.29,55h0L73.54,73.75a10.75,10.75,0,0,1-15.2,0l-.8-.8a10.75,10.75,0,0,1,0-15.2L76.3,39h31.51l.47.47L132.81,64Z"/><rect class="cls-2" x="46.67" y="97.88" width="21.5" height="40.15" rx="10.75" ry="10.75" transform="translate(100.23 -6.06) rotate(45)"/><rect class="cls-2" x="63.53" y="117.28" width="21.5" height="28.45" rx="10.75" ry="10.75" transform="translate(114.74 -14.01) rotate(45)"/><line class="cls-2" x1="109.93" y1="39.99" x2="109.47" y2="39.53"/></g></g></svg>