<svg xmlns="http://www.w3.org/2000/svg" viewBox="0 0 185 185"><defs><style>.cls-1,.cls-2{fill:#fff;stroke:#231f20;stroke-linejoin:round;}.cls-1{stroke-width:4px;}.cls-2{stroke-linecap:round;stroke-width:6px;}</style></defs><title>communication</title><g id="Layer_2" data-name="Layer 2"><g id="Layer_1-2" data-name="Layer 1"><rect class="cls-1" x="2" y="2" width="181" height="181"/><path class="cls-2" d="M123.27,101H41.94a6.26,6.26,0,0,0-4.73,2.28l-8.74,10.15c-4.25,4.93-11.46,1.4-11.46-5.61V53.89C17,49.53,20,46,23.73,46h99.54C127,46,130,49.53,130,53.89V93.11C130,97.47,127,101,123.27,101Z"/><path class="cls-2" d="M62.73,125h81.33a6.26,6.26,0,0,1,4.73,2.28l8.74,10.15c4.25,4.93,11.46,1.4,11.46-5.61V77.89c0-4.36-3-7.89-6.73-7.89H62.73C59,70,56,73.53,56,77.89v39.21C56,121.47,59,125,62.73,125Z"/></g></g></svg>