<svg xmlns="http://www.w3.org/2000/svg" viewBox="0 0 2874.66 377.21"><defs><style>.cls-1{fill:#f26922;}.cls-2{fill:#5694cf;}.cls-3{fill:#0a55a3;}.cls-4{fill:#88b8e3;}.cls-5{fill:#a1cd3a;}.cls-6{fill:#1d8743;}.cls-7{fill:#fff;}.cls-8{fill:#a1cc3a;}.cls-9{fill:#f26a23;}</style></defs><title>cs4all-logo</title><g id="Layer_2" data-name="Layer 2"><g id="NYC_DOE_CS4ALL_Logo" data-name="NYC DOE CS4ALL Logo"><path class="cls-1" d="M744.09,90.47V90c0-49.46,37.28-90,90.72-90,32.81,0,52.44,10.94,68.6,26.84L879,54.93C865.63,42.75,852,35.29,834.56,35.29c-29.33,0-50.45,24.36-50.45,54.18V90c0,29.83,20.63,54.68,50.45,54.68,19.88,0,32.06-8,45.74-20.38l24.36,24.61c-17.9,19.14-37.78,31.07-71.33,31.07C782.12,179.95,744.09,140.43,744.09,90.47ZM1100,90c0,49.46-39,90-92.71,90s-92.21-40-92.21-89.48V90c0-49.46,39-90,92.71-90S1100,40,1100,89.48Zm-40,0c0-29.82-21.87-54.68-52.69-54.68s-52.2,24.36-52.2,54.18V90c0,29.83,21.88,54.68,52.69,54.68S1060,120.3,1060,90.47Zm104.13-25.85,48.47,73.57h1l49-74.31V177h38V3H1259.3l-45.73,73.57L1167.83,3h-41.26V177h37.53Zm308.43-1v.5c0,40.26-31.32,61.14-70.34,61.14h-29.08V177h-38.28V3h71.08C1447.43,3,1472.54,27.59,1472.54,63.13Zm-38.77.74c0-17.15-11.93-26.34-31.07-26.34h-29.58V90.72h30.32c19.14,0,30.32-11.43,30.32-26.34ZM1604,102.65c0,27.59-14.17,41.75-37.53,41.75s-37.53-14.66-37.53-43V3h-38.28V102.4c0,51.2,28.58,77.3,75.31,77.3s76.3-25.85,76.3-78.54V3H1604Zm57.4-64.37h52.94V177h38.28V38.27h52.94V3H1661.41Zm204,68.1h82v-34h-82V37h93.2V3H1827.42V177H1959.9V142.91h-94.45ZM2136.85,177h-44.74l-37.28-55.67h-30.07V177h-38.28V3H2066c41,0,65.62,21.63,65.62,57.42v.5c0,28.09-15.16,45.73-37.28,53.93Zm-44-114.58c0-16.41-11.43-24.85-30.07-24.85h-38v50h38.77c18.64,0,29.33-9.94,29.33-24.61ZM823.92,273.46c-29.09-7.45-36.31-11.06-36.31-22.12v-.48c0-8.17,7.46-14.67,21.64-14.67s28.85,6.25,43.76,16.59l19.24-27.89c-17.07-13.71-38-21.4-62.52-21.4-34.38,0-58.91,20.2-58.91,50.73v.48c0,33.42,21.88,42.8,55.78,51.45,28.13,7.21,33.9,12,33.9,21.4V328c0,9.86-9.14,15.87-24.28,15.87-19.24,0-35.11-7.93-50.25-20.44l-21.88,26.21a107.1,107.1,0,0,0,71.41,26.93c36.31,0,61.79-18.75,61.79-52.17V324C877.3,294.62,858.06,282.36,823.92,273.46ZM982.37,343c-28.85,0-48.81-24-48.81-52.9v-.48c0-28.85,20.44-52.42,48.81-52.42,16.83,0,30.06,7.21,43,19L1049,229c-15.63-15.39-34.62-26-66.36-26-51.7,0-87.77,39.19-87.77,87v.48c0,48.33,36.79,86.56,86.32,86.56,32.46,0,51.7-11.54,69-30.06l-23.56-23.8C1013.39,335.26,1001.6,343,982.37,343Zm91.84,31.26h37V205.9h-37Zm108.68-68.29h79.35V273h-79.35V238.84h90.17V205.9h-127V374.21h128.16V341.27h-91.37Zm230.1,3.61L1334.12,205.9H1300V374.21h36.55v-107l81.51,107h31.5V205.9H1413ZM1562.78,343c-28.86,0-48.81-24-48.81-52.9v-.48c0-28.85,20.44-52.42,48.81-52.42,16.83,0,30.05,7.21,43,19L1629.38,229c-15.63-15.39-34.63-26-66.36-26-51.7,0-87.76,39.19-87.76,87v.48c0,48.33,36.79,86.56,86.32,86.56,32.46,0,51.7-11.54,69-30.06L1607,323.24C1593.79,335.26,1582,343,1562.78,343Zm126.94-37h79.35V273h-79.35V238.84h90.17V205.9h-127V374.21h128.16V341.27h-91.37Z"/><path class="cls-2" d="M1889.69,240v35.73h80.1v33.58h-80.1v65h-36.93V206.45h127.82V240Z"/><path class="cls-2" d="M2084.43,377.21c-51.8,0-89-38.61-89-86.34v-.48c0-47.73,37.65-86.82,89.46-86.82s89,38.61,89,86.34v.48C2173.88,338.11,2136.23,377.21,2084.43,377.21Zm50.84-86.82c0-28.78-21.11-52.76-50.84-52.76s-50.36,23.5-50.36,52.28v.48c0,28.78,21.1,52.76,50.85,52.76s50.36-23.5,50.36-52.29Z"/><path class="cls-2" d="M2301.47,374.33l-36-53.72h-29v53.72h-36.94V206.45h76.75c39.57,0,63.31,20.87,63.31,55.4v.48c0,27.1-14.63,44.13-36,52l41,60Zm.72-110.56c0-15.83-11-24-29-24h-36.69V288h37.41c18,0,28.3-9.59,28.3-23.75Z"/><polygon class="cls-3" points="1852.55 206.16 1852.55 240.16 1980.6 240.16 1980.6 206.16 1852.55 206.16 1852.55 206.16"/><path class="cls-4" d="M2134.64,290.08h38.62v-.48c0-47.72-37.18-86.34-89-86.34s-89.46,39.09-89.46,86.82h38.62v-.48c0-28.78,20.62-52.28,50.36-52.28s50.84,24,50.84,52.76Z"/><polygon class="cls-4" points="2199.55 239.81 2199.55 373.58 2237.03 373.58 2237.03 239.81 2199.55 239.81 2199.55 239.81"/><path class="cls-5" d="M2555.45,374.33l-15.35-37.66h-71l-15.35,37.66h-37.65l72-169.08h34.05l71.95,169.08Zm-50.85-124.71-22.3,54.44h44.61Z"/><path class="cls-5" d="M2612.77,374.33V206.45h36.93v134.3h83.7v33.58Z"/><path class="cls-5" d="M2754,374.33V206.45H2791v134.3h83.7v33.58Z"/><polygon class="cls-6" points="2613.35 340.62 2613.35 374.62 2733.41 374.62 2733.41 340.62 2613.35 340.62 2613.35 340.62"/><polygon class="cls-6" points="2754.22 205.63 2754.22 373.58 2791.35 373.58 2791.35 205.63 2754.22 205.63 2754.22 205.63"/><polygon class="cls-6" points="2482.21 304.01 2468.99 336.63 2539.78 336.63 2527.11 304.01 2482.21 304.01 2482.21 304.01"/><path class="cls-7" d="M690.19,377.1h-9V.1h9ZM.7,291.48H23.88c16.39,0,26.44-9.52,26.44-27.19,0-16.69-9.9-26.74-26.44-26.74H.7Zm14-41.84h6.64c9.6,0,14.88,4.76,14.88,14.57,0,10.8-4.23,15-14.88,15.18H14.74ZM95.6,275c.6-13.3-6.42-23.86-20.47-23.86-11.55,0-21.14,8.6-21.14,20.61,0,13.14,8.68,20.84,21.45,20.84,8.76,0,17.14-3.93,19.49-13h-12c-1.21,2.87-4.23,4.3-7.32,4.3-5.44,0-8.54-3.55-8.76-8.91Zm-28.77-7.18c.75-4.76,3.77-8,8.3-8,4.3,0,7.4,3.62,7.63,8Zm33.66,36.78h12.84V287.26h.15a13.13,13.13,0,0,0,11.18,5.36c11.1,0,16.54-9.67,16.54-19.86,0-11-5.21-21.59-17.52-21.59a12.53,12.53,0,0,0-10.8,5.66h-.15v-4.53H100.49ZM120.74,261c5.66,0,7.63,5.52,7.63,10.5,0,5.36-2,11.33-7.7,11.33s-7.78-4.46-7.78-11.33C112.88,263.39,117.26,261,120.74,261Zm37.16,3.4c.6-3.33,2.87-4.92,6.42-4.92,2.64,0,6.19,1.14,6.19,4.08,0,2.42-1.21,3.17-3.4,3.62-8.91,1.82-22.81.83-22.81,13.59,0,8.09,5.89,11.86,13.37,11.86,4.68,0,9.59-1.36,12.91-4.83a15.69,15.69,0,0,0,.75,3.7h12.92c-1.51-3.09-1.51-6.72-1.51-10V264.3c0-11.1-9-13.14-18.28-13.14-4.46,0-9,.76-12.46,2.72a12.06,12.06,0,0,0-6.12,10.5Zm-.75,15.86c0-3.1,2.42-4.31,5.29-5s6.12-1,7.93-2.11c.3,8.08-1.74,11.56-7.86,11.56C159.63,284.69,157.14,283.4,157.14,280.23Zm32.94,11.25h12.84v-19.4c0-4.91,3.32-9.29,9.66-9.29a18,18,0,0,1,4.91.75V251.83a13.89,13.89,0,0,0-3-.3c-5.51,0-9.89,2.64-11.78,7.62h-.15v-6.87H190.07Zm55.72-39.19h-7.93V240.43H225v11.86h-6.5v8.31H225V278c0,10.65,2.79,13.82,13.75,13.82,2.34,0,4.68-.3,7-.38V282c-1.13,0-2.27.15-3.32.15-2.79,0-4.61-.68-4.61-3.78V260.6h7.93Zm5,39.19H263.6v-19.1c0-8,2-10.65,6.57-10.65,3.47,0,4.83,2.87,4.83,7.47v22.28h12.84V272.3c0-6.34.53-10.57,6-10.57,3.32,0,5.36,2.49,5.36,6.72v23h12.84V268.08c0-7.48-1.36-16.92-13.82-16.92-5.29,0-9.14,2.18-12.24,6.33-2.11-4.75-6.49-6.33-11.4-6.33a13.06,13.06,0,0,0-11.25,6.49h-.15v-5.36H250.76ZM358.81,275c.6-13.3-6.42-23.86-20.46-23.86-11.55,0-21.14,8.6-21.14,20.61,0,13.14,8.68,20.84,21.45,20.84,8.76,0,17.15-3.93,19.48-13h-12c-1.21,2.87-4.23,4.3-7.33,4.3-5.44,0-8.53-3.55-8.76-8.91ZM330,267.85c.75-4.76,3.78-8,8.31-8,4.3,0,7.4,3.62,7.63,8Zm33.67,23.64h12.84V270.11c0-4.3,2.11-8.38,6.95-8.38,7,0,6.42,5.44,6.42,10.8v19h12.84V266.34c0-5.67-1.06-15.18-14.12-15.18-4.68,0-10,2.49-12.31,6.49h-.15v-5.36H363.71ZM433,252.29H425V240.43H412.2v11.86h-6.5v8.31h6.5V278c0,10.65,2.79,13.82,13.74,13.82,2.34,0,4.68-.3,7-.38V282c-1.13,0-2.27.15-3.32.15-2.8,0-4.61-.68-4.61-3.78V260.6H433Zm24.63,19.63c0,11.79,8.46,20.69,20.62,20.69s20.69-8.91,20.69-20.69-8.54-20.76-20.69-20.76S457.59,260.15,457.59,271.92Zm12.84,0c0-5,1.81-11,7.78-11s7.86,6,7.86,11-1.89,10.88-7.86,10.88S470.43,276.91,470.43,271.92Zm35.72,19.56H519V260.6h7.7v-8.31H519v-1.74c0-3.55,1.81-3.93,4.76-3.93a28,28,0,0,1,3.47.22v-9.06c-2-.07-4.15-.23-6.19-.23-11,0-14.88,3.48-14.88,14.73H500v8.31h6.19ZM.7,374.46H44.42V362.37H14.74V352.1H41.17V341.23H14.74v-9.45H43.67V320.53H.7ZM89.1,320.53H76.27v19h-.15a13.11,13.11,0,0,0-11.18-5.36c-11.1,0-16.54,9.67-16.54,19.86,0,11,5.21,21.59,17.52,21.59a12.53,12.53,0,0,0,10.8-5.66h.15v4.53H89.1ZM69.09,344c5.59,0,7.63,5.21,7.63,10.87,0,5-1.36,10.95-7.63,10.95-5.89,0-7.85-6-7.85-11.32C61.24,349.46,63.2,344,69.09,344Zm66.21-8.68H122.46v21c0,6.95-4.23,8.76-7,8.76-4.08,0-6.34-1.82-6.34-7V335.27H96.26v23.56c0,10.27,3.25,16.76,14.5,16.76a14.44,14.44,0,0,0,11.93-6.49h.15v5.36H135.3Zm45.16,14.34c-.91-10.34-9.59-15.48-19.33-15.48-12.61,0-20.54,8.91-20.54,21.37,0,12,8.76,20.08,20.54,20.08,10.42,0,18.58-6,19.71-16.54H168.38c-.61,4.15-2.87,6.72-7.33,6.72-5.44,0-7.63-5.21-7.63-10.27,0-5.44,1.13-11.55,8.31-11.55a6,6,0,0,1,6.27,5.66Zm16.7-2.26c.6-3.33,2.88-4.91,6.42-4.91,2.64,0,6.19,1.14,6.19,4.08,0,2.42-1.21,3.17-3.4,3.62-8.91,1.81-22.81.83-22.81,13.59,0,8.09,5.89,11.85,13.37,11.85,4.68,0,9.59-1.36,12.91-4.83a15.71,15.71,0,0,0,.75,3.7h12.92c-1.51-3.09-1.51-6.72-1.51-10V347.27c0-11.1-9-13.14-18.28-13.14-4.45,0-9,.75-12.46,2.72a12.06,12.06,0,0,0-6.12,10.5Zm-.75,15.86c0-3.09,2.42-4.3,5.29-5s6.12-1,7.93-2.11c.3,8.08-1.74,11.56-7.86,11.56C198.9,367.66,196.41,366.38,196.41,363.2Zm55.85-27.94h-7.93V323.41H231.49v11.86H225v8.3h6.5V361c0,10.65,2.79,13.82,13.74,13.82,2.34,0,4.68-.3,7-.38V365c-1.13,0-2.26.15-3.32.15-2.8,0-4.61-.67-4.61-3.78V343.57h7.93Zm18.09-14.73H257.51v9.82h12.84Zm-12.84,53.92h12.84V335.27H257.51ZM275.7,354.9c0,11.78,8.46,20.69,20.62,20.69S317,366.68,317,354.9s-8.54-20.76-20.69-20.76S275.7,343.11,275.7,354.9Zm12.84,0c0-5,1.81-10.95,7.78-10.95s7.86,6,7.86,10.95-1.89,10.87-7.86,10.87S288.54,359.88,288.54,354.9Zm33.64,19.56H335V353.08c0-4.3,2.12-8.38,6.95-8.38,7,0,6.42,5.43,6.42,10.8v19h12.84V349.31c0-5.67-1.06-15.18-14.12-15.18-4.68,0-10,2.49-12.31,6.49h-.15v-5.36H322.18Z"/><polygon class="cls-2" points="588.08 1.62 457.39 1.62 418.19 40.82 418.19 171.5 457.39 210.7 588.08 210.7 627.29 171.5 627.29 132.3 614.22 119.21 548.87 119.21 548.87 132.3 496.6 132.3 496.6 80.02 548.87 80.02 548.87 92.93 614.22 92.93 627.29 80.02 627.29 40.82 588.08 1.62"/><polygon class="cls-8" points="196.03 1.62 143.75 1.62 130.69 14.68 130.69 66.95 65.34 1.62 13.07 1.62 0 14.68 0 197.64 13.07 210.7 65.34 210.7 78.41 197.64 78.41 145.36 143.75 210.7 143.75 210.7 196.03 210.7 209.09 197.64 209.09 14.68 196.03 1.62"/><polygon class="cls-9" points="287.5 210.7 339.78 210.7 352.85 197.64 352.85 158.44 418.19 93.09 418.19 14.68 405.12 1.62 352.85 1.62 339.78 14.68 339.78 40.82 313.64 66.95 287.5 40.82 287.5 40.82 287.5 14.68 274.44 1.62 222.16 1.62 209.09 14.68 209.09 93.09 274.44 158.44 274.44 197.64 287.5 210.7"/></g></g></svg>