<?xml version="1.0" encoding="utf-8"?>
<!-- Generator: Adobe Illustrator 21.1.0, SVG Export Plug-In . SVG Version: 6.00 Build 0)  -->
<svg version="1.1" id="Layer_1" xmlns="http://www.w3.org/2000/svg" xmlns:xlink="http://www.w3.org/1999/xlink" x="0px" y="0px"
	 viewBox="0 0 2874.7 377.2" style="enable-background:new 0 0 2874.7 377.2;" xml:space="preserve">
<style type="text/css">
	.st0{fill:#F26922;}
	.st1{fill:#5694CF;}
	.st2{fill:#0A55A3;}
	.st3{fill:#88B8E3;}
	.st4{fill:#A1CD3A;}
	.st5{fill:#1D8743;}
	.st6{fill:#FFFFFF;}
	.st7{fill:#A1CC3A;}
	.st8{fill:#F26A23;}
	.st9{fill:#F9CCFF;}
</style>
<title>cs4all-logo</title>
<g id="Layer_2">
	<g id="NYC_DOE_CS4ALL_Logo">
		<path class="st0" d="M744.1,90.5V90c0-49.5,37.3-90,90.7-90c32.8,0,52.4,10.9,68.6,26.8L879,54.9c-13.4-12.2-27-19.6-44.4-19.6
			c-29.3,0-50.5,24.4-50.5,54.2V90c0,29.8,20.6,54.7,50.5,54.7c19.9,0,32.1-8,45.7-20.4l24.4,24.6C886.8,168,866.9,180,833.3,180
			C782.1,179.9,744.1,140.4,744.1,90.5z M1100,90c0,49.5-39,90-92.7,90s-92.2-40-92.2-89.5V90c0-49.5,39-90,92.7-90
			s92.2,40,92.2,89.5V90z M1060,90c0-29.8-21.9-54.7-52.7-54.7s-52.2,24.4-52.2,54.2V90c0,29.8,21.9,54.7,52.7,54.7
			s52.2-24.4,52.2-54.2V90z M1164.1,64.1l48.5,73.6h1l49-74.3V177h38V3h-41.3l-45.7,73.6L1167.8,3h-41.3v174h37.5L1164.1,64.1z
			 M1472.6,63.1v0.5c0,40.3-31.3,61.1-70.3,61.1h-29.1V177h-38.3V3h71.1C1447.4,3,1472.5,27.6,1472.6,63.1L1472.6,63.1z
			 M1433.8,63.9c0-17.1-11.9-26.3-31.1-26.3h-29.6v53.2h30.3c19.1,0,30.3-11.4,30.3-26.3L1433.8,63.9z M1604,102.6
			c0,27.6-14.2,41.7-37.5,41.7s-37.5-14.7-37.5-43V3h-38.3v99.4c0,51.2,28.6,77.3,75.3,77.3s76.3-25.9,76.3-78.5V3H1604V102.6z
			 M1661.4,38.3h52.9V177h38.3V38.3h52.9V3h-144.1L1661.4,38.3z M1865.4,106.4h82v-34h-82V37h93.2V3h-131.2v174h132.5v-34.1h-94.4
			L1865.4,106.4z M2136.9,177h-44.7l-37.3-55.7h-30.1V177h-38.3V3h79.5c41,0,65.6,21.6,65.6,57.4v0.5c0,28.1-15.2,45.7-37.3,53.9
			L2136.9,177z M2092.9,62.4c0-16.4-11.4-24.8-30.1-24.8h-38v50h38.8c18.6,0,29.3-9.9,29.3-24.6L2092.9,62.4z M823.9,273.5
			c-29.1-7.5-36.3-11.1-36.3-22.1v-0.5c0-8.2,7.5-14.7,21.6-14.7s28.8,6.3,43.8,16.6l19.2-27.9c-17.1-13.7-38-21.4-62.5-21.4
			c-34.4,0-58.9,20.2-58.9,50.7v0.5c0,33.4,21.9,42.8,55.8,51.4c28.1,7.2,33.9,12,33.9,21.4v0.5c0,9.9-9.1,15.9-24.3,15.9
			c-19.2,0-35.1-7.9-50.3-20.4l-21.9,26.2c19.7,17.4,45.1,27,71.4,26.9c36.3,0,61.8-18.8,61.8-52.2V324
			C877.3,294.6,858.1,282.4,823.9,273.5z M982.4,343c-28.8,0-48.8-24-48.8-52.9v-0.5c0-28.9,20.4-52.4,48.8-52.4
			c16.8,0,30.1,7.2,43,19L1049,229c-15.6-15.4-34.6-26-66.4-26c-51.7,0-87.8,39.2-87.8,87v0.5c0,48.3,36.8,86.6,86.3,86.6
			c32.5,0,51.7-11.5,69-30.1l-23.6-23.8C1013.4,335.3,1001.6,343,982.4,343z M1074.2,374.3h37V205.9h-37V374.3z M1182.9,306h79.3
			v-33h-79.3v-34.2h90.2v-32.9h-127v168.3h128.2v-32.9h-91.4L1182.9,306z M1413,309.6l-78.9-103.7H1300v168.3h36.6v-107l81.5,107
			h31.5V205.9H1413L1413,309.6z M1562.8,343c-28.9,0-48.8-24-48.8-52.9v-0.5c0-28.9,20.4-52.4,48.8-52.4c16.8,0,30.1,7.2,43,19
			l23.6-27.2c-15.6-15.4-34.6-26-66.4-26c-51.7,0-87.8,39.2-87.8,87v0.5c0,48.3,36.8,86.6,86.3,86.6c32.5,0,51.7-11.5,69-30.1
			l-23.6-23.7C1593.8,335.3,1582,343,1562.8,343z M1689.7,306h79.3v-33h-79.3v-34.2h90.2v-32.9h-127v168.3h128.2v-32.9h-91.4
			L1689.7,306z"/>
		<path class="st1" d="M1889.7,240v35.7h80.1v33.6h-80.1v65h-36.9V206.4h127.8V240H1889.7z"/>
		<path class="st1" d="M2084.4,377.2c-51.8,0-89-38.6-89-86.3v-0.5c0-47.7,37.7-86.8,89.5-86.8c51.8,0,89,38.6,89,86.3v0.5
			C2173.9,338.1,2136.2,377.2,2084.4,377.2z M2135.3,290.4c0-28.8-21.1-52.8-50.8-52.8s-50.4,23.5-50.4,52.3v0.5
			c0,28.8,21.1,52.8,50.8,52.8s50.4-23.5,50.4-52.3L2135.3,290.4z"/>
		<path class="st1" d="M2301.5,374.3l-36-53.7h-29v53.7h-36.9V206.4h76.8c39.6,0,63.3,20.9,63.3,55.4v0.5c0,27.1-14.6,44.1-36,52
			l41,60L2301.5,374.3z M2302.2,263.8c0-15.8-11-24-29-24h-36.7V288h37.4c18,0,28.3-9.6,28.3-23.8L2302.2,263.8z"/>
		<polygon class="st2" points="1852.6,206.2 1852.6,240.2 1980.6,240.2 1980.6,206.2 1852.6,206.2 		"/>
		<path class="st3" d="M2134.6,290.1h38.6v-0.5c0-47.7-37.2-86.3-89-86.3s-89.5,39.1-89.5,86.8h38.6v-0.5
			c0-28.8,20.6-52.3,50.4-52.3S2134.6,261.3,2134.6,290.1L2134.6,290.1z"/>
		<polygon class="st3" points="2199.6,239.8 2199.6,373.6 2237,373.6 2237,239.8 2199.6,239.8 		"/>
		<path class="st4" d="M2555.4,374.3l-15.4-37.7h-71l-15.4,37.7h-37.6l72-169.1h34.1l71.9,169.1H2555.4z M2504.6,249.6l-22.3,54.4
			h44.6L2504.6,249.6z"/>
		<path class="st4" d="M2612.8,374.3V206.4h36.9v134.3h83.7v33.6L2612.8,374.3z"/>
		<path class="st4" d="M2754,374.3V206.4h37v134.3h83.7v33.6L2754,374.3z"/>
		<polygon class="st5" points="2613.4,340.6 2613.4,374.6 2733.4,374.6 2733.4,340.6 2613.4,340.6 		"/>
		<polygon class="st5" points="2754.2,205.6 2754.2,373.6 2791.4,373.6 2791.4,205.6 2754.2,205.6 		"/>
		<polygon class="st5" points="2482.2,304 2469,336.6 2539.8,336.6 2527.1,304 2482.2,304 		"/>
		<path class="st6" d="M690.2,377.1h-9V0.1h9V377.1z M0.7,291.5h23.2c16.4,0,26.4-9.5,26.4-27.2c0-16.7-9.9-26.7-26.4-26.7H0.7
			V291.5z M14.7,249.6h6.6c9.6,0,14.9,4.8,14.9,14.6c0,10.8-4.2,15-14.9,15.2h-6.6L14.7,249.6z M95.6,275
			c0.6-13.3-6.4-23.9-20.5-23.9c-11.5,0-21.1,8.6-21.1,20.6c0,13.1,8.7,20.8,21.5,20.8c8.8,0,17.1-3.9,19.5-13h-12
			c-1.2,2.9-4.2,4.3-7.3,4.3c-5.4,0-8.5-3.5-8.8-8.9L95.6,275z M66.8,267.8c0.8-4.8,3.8-8,8.3-8c4.3,0,7.4,3.6,7.6,8H66.8z
			 M100.5,304.6h12.8v-17.3h0.2c2.6,3.5,6.8,5.6,11.2,5.4c11.1,0,16.5-9.7,16.5-19.9c0-11-5.2-21.6-17.5-21.6
			c-4.3-0.1-8.4,2-10.8,5.7h-0.2v-4.5h-12.2L100.5,304.6z M120.7,261c5.7,0,7.6,5.5,7.6,10.5c0,5.4-2,11.3-7.7,11.3
			s-7.8-4.5-7.8-11.3C112.9,263.4,117.3,261,120.7,261z M157.9,264.4c0.6-3.3,2.9-4.9,6.4-4.9c2.6,0,6.2,1.1,6.2,4.1
			c0,2.4-1.2,3.2-3.4,3.6c-8.9,1.8-22.8,0.8-22.8,13.6c0,8.1,5.9,11.9,13.4,11.9c4.7,0,9.6-1.4,12.9-4.8c0.1,1.3,0.4,2.5,0.8,3.7
			h12.9c-1.5-3.1-1.5-6.7-1.5-10v-17.2c0-11.1-9-13.1-18.3-13.1c-4.5,0-9,0.8-12.5,2.7c-3.8,2.1-6.1,6.2-6.1,10.5L157.9,264.4z
			 M157.1,280.3c0-3.1,2.4-4.3,5.3-5s6.1-1,7.9-2.1c0.3,8.1-1.7,11.6-7.9,11.6C159.6,284.7,157.1,283.4,157.1,280.3L157.1,280.3z
			 M190.1,291.5h12.8v-19.4c0-4.9,3.3-9.3,9.7-9.3c1.7,0,3.3,0.3,4.9,0.8v-11.7c-1-0.2-2-0.3-3-0.3c-5.5,0-9.9,2.6-11.8,7.6h-0.1
			v-6.9h-12.5L190.1,291.5z M245.8,252.3h-7.9v-11.9H225v11.9h-6.5v8.3h6.5V278c0,10.6,2.8,13.8,13.8,13.8c2.3,0,4.7-0.3,7-0.4V282
			c-1.1,0-2.3,0.1-3.3,0.1c-2.8,0-4.6-0.7-4.6-3.8v-17.8h7.9L245.8,252.3z M250.8,291.5h12.8v-19.1c0-8,2-10.6,6.6-10.6
			c3.5,0,4.8,2.9,4.8,7.5v22.3h12.8v-19.2c0-6.3,0.5-10.6,6-10.6c3.3,0,5.4,2.5,5.4,6.7v23H312v-23.4c0-7.5-1.4-16.9-13.8-16.9
			c-5.3,0-9.1,2.2-12.2,6.3c-2.1-4.7-6.5-6.3-11.4-6.3c-4.6,0-8.9,2.5-11.3,6.5h-0.1v-5.4h-12.4L250.8,291.5z M358.8,275
			c0.6-13.3-6.4-23.9-20.5-23.9c-11.5,0-21.1,8.6-21.1,20.6c0,13.1,8.7,20.8,21.5,20.8c8.8,0,17.1-3.9,19.5-13h-12
			c-1.2,2.9-4.2,4.3-7.3,4.3c-5.4,0-8.5-3.5-8.8-8.9L358.8,275z M330,267.8c0.8-4.8,3.8-8,8.3-8c4.3,0,7.4,3.6,7.6,8H330z
			 M363.7,291.5h12.8v-21.4c0-4.3,2.1-8.4,7-8.4c7,0,6.4,5.4,6.4,10.8v19h12.8v-25.2c0-5.7-1.1-15.2-14.1-15.2
			c-4.7,0-10,2.5-12.3,6.5h-0.1v-5.4h-12.4L363.7,291.5z M433,252.3h-8v-11.9h-12.8v11.9h-6.5v8.3h6.5V278
			c0,10.6,2.8,13.8,13.7,13.8c2.3,0,4.7-0.3,7-0.4V282c-1.1,0-2.3,0.1-3.3,0.1c-2.8,0-4.6-0.7-4.6-3.8v-17.8h8V252.3z M457.6,271.9
			c0,11.8,8.5,20.7,20.6,20.7s20.7-8.9,20.7-20.7s-8.5-20.8-20.7-20.8S457.6,260.1,457.6,271.9L457.6,271.9z M470.5,271.9
			c0-5,1.8-11,7.8-11s7.9,6,7.9,11s-1.9,10.9-7.9,10.9S470.4,276.9,470.5,271.9L470.5,271.9z M506.2,291.5H519v-30.9h7.7v-8.3H519
			v-1.7c0-3.6,1.8-3.9,4.8-3.9c1.2,0,2.3,0.1,3.5,0.2v-9.1c-2-0.1-4.2-0.2-6.2-0.2c-11,0-14.9,3.5-14.9,14.7H500v8.3h6.2V291.5z
			 M0.7,374.5h43.7v-12.1H14.7v-10.3h26.4v-10.9H14.7v-9.5h28.9v-11.3h-43V374.5z M89.1,320.5H76.3v19h-0.2
			c-2.6-3.5-6.8-5.6-11.2-5.4c-11.1,0-16.5,9.7-16.5,19.9c0,11,5.2,21.6,17.5,21.6c4.3,0.1,8.4-2,10.8-5.7h0.2v4.5h12.2V320.5z
			 M69.1,344c5.6,0,7.6,5.2,7.6,10.9c0,5-1.4,11-7.6,11c-5.9,0-7.8-6-7.8-11.3C61.2,349.5,63.2,344,69.1,344z M135.3,335.3h-12.8v21
			c0,7-4.2,8.8-7,8.8c-4.1,0-6.3-1.8-6.3-7v-22.8H96.3v23.6c0,10.3,3.3,16.8,14.5,16.8c4.8,0,9.3-2.5,11.9-6.5h0.2v5.4h12.5
			L135.3,335.3z M180.5,349.7c-0.9-10.3-9.6-15.5-19.3-15.5c-12.6,0-20.5,8.9-20.5,21.4c0,12,8.8,20.1,20.5,20.1
			c10.4,0,18.6-6,19.7-16.5h-12.5c-0.6,4.1-2.9,6.7-7.3,6.7c-5.4,0-7.6-5.2-7.6-10.3c0-5.4,1.1-11.5,8.3-11.5
			c3.3-0.2,6.1,2.4,6.3,5.7L180.5,349.7z M197.2,347.4c0.6-3.3,2.9-4.9,6.4-4.9c2.6,0,6.2,1.1,6.2,4.1c0,2.4-1.2,3.2-3.4,3.6
			c-8.9,1.8-22.8,0.8-22.8,13.6c0,8.1,5.9,11.9,13.4,11.9c4.7,0,9.6-1.4,12.9-4.8c0.1,1.3,0.4,2.5,0.8,3.7h12.9
			c-1.5-3.1-1.5-6.7-1.5-10v-17.2c0-11.1-9-13.1-18.3-13.1c-4.4,0-9,0.8-12.5,2.7c-3.8,2.1-6.1,6.2-6.1,10.5L197.2,347.4z
			 M196.4,363.3c0-3.1,2.4-4.3,5.3-5s6.1-1,7.9-2.1c0.3,8.1-1.7,11.6-7.9,11.6C198.9,367.7,196.4,366.4,196.4,363.3L196.4,363.3z
			 M252.3,335.3h-7.9v-11.9h-12.8v11.9H225v8.3h6.5V361c0,10.6,2.8,13.8,13.7,13.8c2.3,0,4.7-0.3,7-0.4V365c-1.1,0-2.3,0.1-3.3,0.1
			c-2.8,0-4.6-0.7-4.6-3.8v-17.8h7.9L252.3,335.3z M270.3,320.6h-12.8v9.8h12.8L270.3,320.6z M257.5,374.5h12.8v-39.2h-12.8
			L257.5,374.5z M275.7,354.9c0,11.8,8.5,20.7,20.6,20.7s20.7-8.9,20.7-20.7s-8.5-20.8-20.7-20.8S275.7,343.1,275.7,354.9z
			 M288.5,354.9c0-5,1.8-11,7.8-11s7.9,6,7.9,11s-1.9,10.9-7.9,10.9S288.5,359.9,288.5,354.9z M322.2,374.5H335v-21.4
			c0-4.3,2.1-8.4,7-8.4c7,0,6.4,5.4,6.4,10.8v19h12.8v-25.2c0-5.7-1.1-15.2-14.1-15.2c-4.7,0-10,2.5-12.3,6.5h-0.1v-5.4h-12.5V374.5
			z"/>
		<polygon class="st1" points="588.1,1.6 457.4,1.6 418.2,40.8 418.2,171.5 457.4,210.7 588.1,210.7 627.3,171.5 627.3,132.3 
			614.2,119.2 548.9,119.2 548.9,132.3 496.6,132.3 496.6,80 548.9,80 548.9,92.9 614.2,92.9 627.3,80 627.3,40.8 		"/>
		<polygon class="st7" points="196,1.6 143.8,1.6 130.7,14.7 130.7,66.9 65.3,1.6 13.1,1.6 0,14.7 0,197.6 13.1,210.7 65.3,210.7 
			78.4,197.6 78.4,145.4 143.8,210.7 143.8,210.7 196,210.7 209.1,197.6 209.1,14.7 		"/>
		<polygon class="st8" points="287.5,210.7 339.8,210.7 352.9,197.6 352.9,158.4 418.2,93.1 418.2,14.7 405.1,1.6 352.9,1.6 
			339.8,14.7 339.8,40.8 313.6,66.9 287.5,40.8 287.5,40.8 287.5,14.7 274.4,1.6 222.2,1.6 209.1,14.7 209.1,93.1 274.4,158.4 
			274.4,197.6 		"/>
	</g>
</g>
<g>
	<path class="st9" d="M2631.6,53.3h-0.7c-2.4,11.4-5.3,24.8-7.7,35.4l-1.7,7.7h20l-1.7-7.7C2637.3,78,2634.1,64.6,2631.6,53.3z"/>
	<path class="st9" d="M2334.8,63.6c0-6.9-4.1-9.6-13.8-9.6h-9.6v21.3h9.6C2330.7,75.3,2334.8,70.5,2334.8,63.6z"/>
	<path class="st9" d="M2323.1,95.9h-11.7v24.4h11.7c11.7,0,16.5-4.5,16.5-12.7S2334.8,95.9,2323.1,95.9z"/>
	<path class="st9" d="M2669.5,2.5H2286c-48,0-87,38.9-87,87v0c0,48,38.9,87,87,87h383.5c48,0,87-38.9,87-87v0
		C2756.5,41.4,2717.6,2.5,2669.5,2.5z M2325.1,143.1h-43.3V31.3h39.9c23.4,0,42,5.8,42,27.9c0,9.6-5.8,20.6-18.9,24.1v0.7
		c15.8,3.1,23.7,11.4,23.7,26.1C2368.5,133.1,2349.2,143.1,2325.1,143.1z M2466.2,143.1h-77.7V31.3h76V56H2418v17.5h39.6v24.8H2418
		v20h48.2V143.1z M2575.7,56h-32.2v87H2514V56h-32.2V31.3h93.9V56z M2652.3,143.1l-5.5-23.7h-30.6l-5.5,23.7h-30.3l33.7-111.8h35.8
		l33.7,111.8H2652.3z"/>
</g>
</svg>
