<svg xmlns="http://www.w3.org/2000/svg" viewBox="0 0 185 185"><defs><style>.cls-1,.cls-2{fill:#fff;stroke:#231f20;stroke-linejoin:round;}.cls-1{stroke-width:4px;}.cls-2{stroke-width:6px;}</style></defs><title>explorer</title><g id="Layer_2" data-name="Layer 2"><g id="Layer_1-2" data-name="Layer 1"><rect class="cls-1" x="2" y="2" width="181" height="181"/><polygon class="cls-2" points="136 137.53 98 129.46 98 48.34 136 56.41 136 137.53"/><polygon class="cls-2" points="59 136.52 21 129.46 21 48.34 59 55.41 59 136.52"/><polygon class="cls-2" points="98 129.46 60 136.52 60 55.41 98 48.34 98 129.46"/><path class="cls-2" d="M127.11,67l-.11,0v38.27l29.27-25.54,0,0,2.06-1.8.23-.24A18.33,18.33,0,1,0,127,65,19.23,19.23,0,0,0,127.11,67Z"/><path class="cls-2" d="M139,67.35h0V78.12l8.24-7.19h0l.58-.51.06-.07A5.16,5.16,0,1,0,139,66.79,5.41,5.41,0,0,0,139,67.35Z"/></g></g></svg>