<svg xmlns="http://www.w3.org/2000/svg" viewBox="0 0 23 23"><title>icon-data</title><g id="Layer_2" data-name="Layer 2"><g id="Layer_1-2" data-name="Layer 1"><path d="M21,4a2,2,0,0,0-2-2H4A2,2,0,0,0,2,4V19a2,2,0,0,0,2,2H19a2,2,0,0,0,2-2ZM19,18.25a.76.76,0,0,1-.75.75H4.75A.76.76,0,0,1,4,18.25V4.75A.76.76,0,0,1,4.75,4h13.5a.76.76,0,0,1,.75.75ZM10,22v1H9V22Zm2,0v1H11V22ZM8,22v1H7V22Zm6,0v1H13V22Zm2,0v1H15V22ZM10,0V1H9V0Zm2,0V1H11V0ZM8,0V1H7V0Zm6,0V1H13V0Zm2,0V1H15V0Zm6,13h1v1H22Zm0-4h1v1H22Zm0-2h1V8H22Zm0,4h1v1H22Zm0,4h1v1H22ZM0,13H1v1H0ZM0,9H1v1H0ZM0,7H1V8H0Zm0,4H1v1H0Zm0,4H1v1H0Zm17,2H6V6H17Z"/></g></g></svg>