<svg xmlns="http://www.w3.org/2000/svg" viewBox="0 0 23 24"><defs><style>.cls-1{fill:#8ac8ff;}</style></defs><title>icon-foundations-color</title><g id="Layer_2" data-name="Layer 2"><g id="Layer_1-2" data-name="Layer 1"><g id="Layer_2-2" data-name="Layer 2"><g id="Layer_1-2-2" data-name="Layer 1-2"><path class="cls-1" d="M9.41,9.14c0,1.62,4.45,1.62,4.4,0v-1c-.14-1.52-4.28-1.53-4.39,0h0Zm2.21-1.38c.76,0,1.39.26,1.39.57s-.63.57-1.39.57-1.39-.26-1.39-.57S10.86,7.76,11.62,7.76Zm6.78-1v-1c-.13-1.53-4.27-1.53-4.38,0h0v1c0,1.56,4.44,1.57,4.38,0ZM14.83,5.9c0-.32.63-.57,1.39-.57s1.38.25,1.38.57-.62.57-1.38.57S14.83,6.21,14.83,5.9ZM23,6.14V18.33L12,24V11.86l9.86-5.19L11.5,1.15,1.17,6.61,11,11.84V24L0,18.33V6.08H0L11.5,0ZM4.81,5.75h0v1c0,1.61,4.45,1.62,4.39,0v-1C9.06,4.22,4.92,4.22,4.81,5.75ZM8.4,5.9c0,.31-.63.57-1.39.57S5.62,6.21,5.62,5.9,6.24,5.33,7,5.33,8.4,5.58,8.4,5.9Zm5.41-1.49v-1c-.14-1.53-4.28-1.54-4.39,0h0v1C9.37,6,13.86,6,13.81,4.41ZM11.62,3c.76,0,1.39.26,1.39.57s-.63.58-1.39.58-1.38-.26-1.38-.58S10.86,3,11.62,3Z"/></g></g></g></g></svg>