<svg xmlns="http://www.w3.org/2000/svg" viewBox="0 0 24 24"><defs><style>.cls-1{fill:#17283e;}.cls-2{fill:#8ac8ff;}</style></defs><title>icon-play</title><g id="Layer_2" data-name="Layer 2"><g id="Layer_1-2" data-name="Layer 1"><path class="cls-1" d="M12,23.88a11.88,11.88,0,0,1-9.67-5L3.86,18a10.08,10.08,0,0,0,16.28,0l1.53.89A11.88,11.88,0,0,1,12,23.88ZM21.27,16A10.13,10.13,0,0,0,13.13,1.89V.14A12,12,0,0,1,23.88,12a11.79,11.79,0,0,1-1.08,4.94Zm-20.06.88A11.8,11.8,0,0,1,.13,12,12,12,0,0,1,10.88.14V1.89A10.13,10.13,0,0,0,2.73,16ZM9.13,7.18l8.62,4.94L9.13,16.78Z"/><path class="cls-2" d="M13.25.27A11.83,11.83,0,0,1,23.75,12a11.67,11.67,0,0,1-1,4.76L21.43,16a10.25,10.25,0,0,0-8.18-14.2V.27m-2.5,0V1.78A10.26,10.26,0,0,0,2.57,16l-1.31.76A11.66,11.66,0,0,1,.25,12,11.83,11.83,0,0,1,10.75.27M9.25,7.4l8.24,4.72L9.25,16.57V7.4M3.83,18.15a10.2,10.2,0,0,0,16.35,0l1.32.76a11.72,11.72,0,0,1-19,0l1.31-.76M13,0V2a10,10,0,0,1,8.11,14.08l1.74,1A12,12,0,0,0,13,0ZM11,0A12,12,0,0,0,1.15,17.09l1.74-1A10,10,0,0,1,11,2V0ZM9,7V17l9-4.86L9,7ZM3.89,17.82l-1.75,1a12,12,0,0,0,19.7,0l-1.75-1a10,10,0,0,1-16.21,0Z"/></g></g></svg>