<svg xmlns="http://www.w3.org/2000/svg" viewBox="0 0 24 24"><defs><style>.cls-1{fill:#8ac8ff;}</style></defs><title>icon-citizen-color</title><g id="Layer_2" data-name="Layer 2"><g id="Layer_1-2" data-name="Layer 1"><path class="cls-1" d="M15.65,16.64a1.77,1.77,0,0,0,0,2.6A16.8,16.8,0,0,1,12.05,24,12,12,0,0,1,.2,14.2,16.79,16.79,0,0,1,4.26,9.58,1.8,1.8,0,0,0,6.6,9.25,16.73,16.73,0,0,1,15.65,16.64ZM.55,8.41A12.08,12.08,0,0,0,0,12.35,18,18,0,0,1,3.58,8.63l0-.09A16.12,16.12,0,0,0,.55,8.41Zm23,.36a16.63,16.63,0,0,0-4.84-2.16,1.52,1.52,0,0,1-.62.61A18,18,0,0,1,18,16.47a1.76,1.76,0,0,1,.08,2.7,19.24,19.24,0,0,1,.7,2.71A12,12,0,0,0,23.56,8.77ZM15.23,6.08A16.52,16.52,0,0,0,7,7.82a1.4,1.4,0,0,1,0,.35,17.8,17.8,0,0,1,9.66,8h.2a16.63,16.63,0,0,0,0-8.69A2.13,2.13,0,0,1,15.23,6.08ZM16.9,4a2.14,2.14,0,0,1,1.93,1.48A17.53,17.53,0,0,1,22.92,7,12,12,0,0,0,14.49.26,18,18,0,0,1,16.9,4ZM1,7.23a17.8,17.8,0,0,1,2.71.15,1.8,1.8,0,0,1,2.79-.6,17.72,17.72,0,0,1,8.75-1.87,1.49,1.49,0,0,1,.51-.63A16.89,16.89,0,0,0,12.68,0,12,12,0,0,0,1,7.23ZM16.8,19.67a17.88,17.88,0,0,1-2.93,4.19,12.07,12.07,0,0,0,3.86-1.31,16.25,16.25,0,0,0-.7-2.89Z"/></g></g></svg>