<svg xmlns="http://www.w3.org/2000/svg" viewBox="0 0 28.98 15.15"><defs><style>.cls-1{fill:#8ac8ff;}</style></defs><title>icon-cs</title><g id="Layer_2" data-name="Layer 2"><g id="Layer_1-2" data-name="Layer 1"><path class="cls-1" d="M2.26,8.06l-.75.16v.05l.75.17,4.91,2V12.2L0,8.87V7.56L7.17,4.24V6ZM15.6,10.9a3.7,3.7,0,0,1,.19-1.34,2.44,2.44,0,0,1,.82-1,6.82,6.82,0,0,0,1.91-1.86,4.15,4.15,0,0,0,.76-2.41A4,4,0,0,0,18,1.16,5.23,5.23,0,0,0,14.38,0a5.43,5.43,0,0,0-3.46,1,3.53,3.53,0,0,0-1.3,3l0,.06h2.91a1.67,1.67,0,0,1,.54-1.32,1.91,1.91,0,0,1,1.29-.45,1.85,1.85,0,0,1,1.42.53,2.08,2.08,0,0,1,.5,1.48,2.81,2.81,0,0,1-.44,1.54,5.41,5.41,0,0,1-1.16,1.28A7,7,0,0,0,13,8.8a4.15,4.15,0,0,0-.43,2.1Zm0,1.68h-3v2.56h3ZM26.73,8.19l.74.18v.05l-.74.15-5.26,2.09v1.72L29,9V7.74L21.47,4.42V6.13Z"/></g></g></svg>