<svg xmlns="http://www.w3.org/2000/svg" viewBox="0 0 24 19"><defs><style>.cls-1{fill:#8ac8ff;}</style></defs><title>icon-creator-color</title><g id="Layer_2" data-name="Layer 2"><g id="Layer_1-2" data-name="Layer 1"><path class="cls-1" d="M17,9.64V7.36c-1.17-.42-1.91-.54-2.28-1.44s.07-1.51.6-2.62L13.7,1.68c-1.1.53-1.72,1-2.62.6S10.06,1.16,9.64,0H7.35c-.41,1.16-.53,1.91-1.43,2.28h0c-.9.37-1.51-.07-2.62-.6L1.68,3.3c.53,1.11,1,1.72.6,2.62S1.16,6.94,0,7.36V9.64c1.15.42,1.91.53,2.28,1.43s-.08,1.54-.6,2.63L3.3,15.32c1.1-.53,1.72-1,2.62-.6h0c.9.37,1,1.12,1.43,2.28H9.64c.42-1.16.53-1.91,1.44-2.28h0c.9-.37,1.5.07,2.62.6l1.62-1.62c-.53-1.11-1-1.72-.6-2.63S15.84,10.06,17,9.64ZM8.5,11.33A2.83,2.83,0,1,1,11.33,8.5,2.83,2.83,0,0,1,8.5,11.33ZM24,15.54V14.46c-.55-.19-.9-.25-1.07-.67s0-.71.28-1.24l-.76-.76c-.52.25-.81.46-1.24.28s-.48-.52-.67-1.07H19.46c-.19.55-.25.9-.67,1.07s-.71,0-1.24-.28l-.76.76c.25.53.46.82.28,1.24s-.53.48-1.07.67v1.08c.54.19.9.25,1.07.67s0,.72-.28,1.24l.76.76c.52-.25.81-.46,1.24-.28s.48.52.67,1.07h1.08c.19-.54.25-.9.67-1.07h0c.43-.18.71,0,1.24.28l.76-.76c-.25-.52-.46-.81-.28-1.24S23.46,15.73,24,15.54Zm-4,.79A1.33,1.33,0,1,1,21.33,15,1.32,1.32,0,0,1,20,16.33Z"/></g></g></svg>