<svg xmlns="http://www.w3.org/2000/svg" viewBox="0 0 18 24"><defs><style>.cls-1{fill:#8ac8ff;}</style></defs><title>icon-units</title><g id="Layer_2" data-name="Layer 2"><g id="Layer_1-2" data-name="Layer 1"><path class="cls-1" d="M18,3a3,3,0,1,0-4,2.83c.17,4.3-2,4.76-5,5.39A10.22,10.22,0,0,0,4,13.31V5.82a3,3,0,1,0-2,0V18.18a3,3,0,1,0,2,0c.27-3.92,2.57-4.41,5.44-5,3-.64,6.77-1.44,6.58-7.38A3,3,0,0,0,18,3ZM1.2,3A1.8,1.8,0,1,1,3,4.8,1.8,1.8,0,0,1,1.2,3ZM4.8,21A1.8,1.8,0,1,1,3,19.2,1.8,1.8,0,0,1,4.8,21ZM15,4.8A1.8,1.8,0,1,1,16.8,3,1.8,1.8,0,0,1,15,4.8Z"/></g></g></svg>