<svg xmlns="http://www.w3.org/2000/svg" viewBox="0 0 24 24"><defs><style>.cls-1{fill:#fff;}</style></defs><title>icon-resources</title><g id="Layer_2" data-name="Layer 2"><g id="Layer_1-2" data-name="Layer 1"><path class="cls-1" d="M6.91,2.74,22.47,18.3l-4.24,4.24L2.67,7ZM6.21,2l-2-2L0,4.24l2,2ZM19,23.15,24,24l-.92-4.9ZM14.46,7.46l.39-.39.71.71.71-.71-.71-.71.71-.71.71.71.71-.71L17,5l2.12-2.12L21.21,5,16.58,9.58,18,11l6-6L19.09,0,13,6ZM9.51,16.65,5,21.21,2.83,19.09l.71-.71.71.71L5,18.38l-.71-.71L5,17l.71.71L6.36,17l-.71-.71.71-.71.71.71.71-.71-.71-.71.32-.32L6,13.12l-6,6L5,24l6-6ZM19.45,5.3a.5.5,0,1,0-.71,0A.5.5,0,0,0,19.45,5.3Z"/></g></g></svg>