<svg xmlns="http://www.w3.org/2000/svg" viewBox="0 0 24.01 24.01"><defs><style>.cls-1{fill:#8ac8ff;}</style></defs><title>icon-explorer-color</title><g id="Layer_2" data-name="Layer 2"><g id="Layer_1-2" data-name="Layer 1"><path class="cls-1" d="M14.59,2.34A10,10,0,1,1,2.34,9.42,10,10,0,0,1,14.59,2.34ZM15.11.41a12,12,0,1,0,8.48,14.7A12,12,0,0,0,15.11.41ZM14.21,10l-.14-5.7-3,4.87a2.93,2.93,0,0,0-1.27.8l-5.55,0L9.1,12.69A2.88,2.88,0,0,0,9.79,14l.14,5.71,3-4.87a3,3,0,0,0,1.27-.81l5.55,0-4.82-2.75A3,3,0,0,0,14.21,10Zm-2.6,3.47a1.5,1.5,0,1,1,1.84-1.06A1.5,1.5,0,0,1,11.61,13.45Zm4.11,5-2.07-2.25a4.24,4.24,0,0,0,1.15-.66Zm-.25-9.29,3-.85-2.22,2.14A4.37,4.37,0,0,0,15.47,9.14ZM8.54,14.87l-3,.85,2.22-2.14A4.63,4.63,0,0,0,8.54,14.87Zm.67-6.39L8.29,5.57l2.06,2.25A4.78,4.78,0,0,0,9.21,8.48Z"/></g></g></svg>