<svg xmlns="http://www.w3.org/2000/svg" viewBox="0 0 24 24"><title>icon-abstraction</title><g id="Layer_2" data-name="Layer 2"><g id="Layer_1-2" data-name="Layer 1"><path d="M20.82,18.1c-3.44-.8-6.64-1.49-5.09-4.42C20.45,4.77,17,0,12,0S3.54,5,8.27,13.68c1.6,2.94-1.73,3.64-5.09,4.42C.2,18.78,0,20.24,0,22.76V24H2c0-3.13-.12-3.55,1.84-4,2.85-.66,5.54-1.28,6.52-3.46A4.12,4.12,0,0,0,10,12.73C8,8.93,7.45,5.64,8.6,3.7,10,1.42,14,1.44,15.37,3.67c1.15,1.91.64,5.22-1.4,9.07a4.19,4.19,0,0,0-.31,3.82c1,2.16,3.7,2.79,6.58,3.45,1.88.44,1.76.89,1.76,4h2V22.76C24,20.24,23.8,18.78,20.82,18.1Z"/></g></g></svg>