<svg xmlns="http://www.w3.org/2000/svg" viewBox="0 0 2874.66 377.21"><defs><style>.cls-1{fill:#f26922;}.cls-2{fill:#5694cf;}.cls-3{fill:#0a55a3;}.cls-4{fill:#88b8e3;}.cls-5{fill:#a1cd3a;}.cls-6{fill:#1d8743;}.cls-7{fill:#fff;}.cls-8{fill:#a1cc3a;}.cls-9{fill:#f26a23;}</style></defs><title>Asset 1</title><g id="Layer_2" data-name="Layer 2"><g id="NYC_DOE_CS4ALL_Logo" data-name="NYC DOE CS4ALL Logo"><path class="cls-1" d="M833.32,179.95c-51.2,0-89.23-39.52-89.23-89.48V90c0-49.46,37.28-90,90.72-90,32.81,0,52.44,10.94,68.6,26.84L879,54.93C865.63,42.75,852,35.29,834.56,35.29c-29.33,0-50.45,24.36-50.45,54.18V90c0,29.83,20.63,54.68,50.45,54.68,19.88,0,32.06-8,45.74-20.38l24.36,24.61C886.75,168,866.87,179.95,833.32,179.95Z"/><path class="cls-1" d="M1007.29,179.95c-53.69,0-92.21-40-92.21-89.48V90c0-49.46,39-90,92.71-90S1100,40,1100,89.48V90C1100,139.43,1061,179.95,1007.29,179.95ZM1060,90c0-29.82-21.87-54.68-52.69-54.68s-52.2,24.36-52.2,54.18V90c0,29.83,21.88,54.68,52.69,54.68S1060,120.3,1060,90.47Z"/><path class="cls-1" d="M1262.53,177V63.38l-49,74.31h-1l-48.47-73.57V177h-37.53V3h41.26l45.73,73.57L1259.3,3h41.26V177Z"/><path class="cls-1" d="M1402.2,124.77h-29.08V177h-38.28V3h71.08c41.5,0,66.61,24.61,66.61,60.15v.5C1472.54,103.89,1441.22,124.77,1402.2,124.77Zm31.57-60.89c0-17.15-11.93-26.34-31.07-26.34h-29.58V90.72h30.32c19.14,0,30.32-11.43,30.32-26.34Z"/><path class="cls-1" d="M1566,179.7c-46.72,0-75.31-26.1-75.31-77.3V3h38.28v98.43c0,28.33,14.17,43,37.53,43S1604,130.24,1604,102.65V3h38.28v98.18C1642.28,153.85,1612.7,179.7,1566,179.7Z"/><path class="cls-1" d="M1752.62,38.27V177h-38.28V38.27h-52.94V3h144.16V38.27Z"/><path class="cls-1" d="M1827.42,177V3h131.23V37h-93.2V72.33h82v34h-82v36.54h94.45V177Z"/><path class="cls-1" d="M2092.11,177l-37.28-55.67h-30.07V177h-38.28V3H2066c41,0,65.62,21.63,65.62,57.42v.5c0,28.09-15.16,45.73-37.28,53.93l42.5,62.14Zm.75-114.58c0-16.41-11.43-24.85-30.07-24.85h-38v50h38.77c18.64,0,29.33-9.94,29.33-24.61Z"/><path class="cls-1" d="M815.51,376.61a107.1,107.1,0,0,1-71.41-26.93L766,323.48c15.15,12.5,31,20.44,50.25,20.44,15.14,0,24.28-6,24.28-15.87v-.48c0-9.38-5.77-14.19-33.9-21.4-33.9-8.66-55.78-18-55.78-51.45v-.48c0-30.54,24.53-50.73,58.91-50.73,24.53,0,45.44,7.69,62.52,21.4L853,252.78c-14.91-10.34-29.58-16.59-43.76-16.59s-21.64,6.49-21.64,14.67v.48c0,11.07,7.22,14.67,36.31,22.12,34.14,8.9,53.38,21.16,53.38,50.5v.48C877.3,357.86,851.81,376.61,815.51,376.61Z"/><path class="cls-1" d="M981.17,377.1c-49.54,0-86.32-38.23-86.32-86.56v-.48c0-47.85,36.07-87,87.77-87,31.74,0,50.73,10.58,66.36,26l-23.56,27.17c-13-11.79-26.21-19-43-19-28.37,0-48.81,23.56-48.81,52.42v.48c0,28.85,20,52.9,48.81,52.9,19.24,0,31-7.7,44.25-19.72l23.56,23.8C1032.86,365.56,1013.63,377.1,981.17,377.1Z"/><path class="cls-1" d="M1074.21,374.21V205.9h37V374.21Z"/><path class="cls-1" d="M1146.1,374.21V205.9h127v32.94h-90.17V273h79.35v32.94h-79.35v35.34h91.37v32.94Z"/><path class="cls-1" d="M1418,374.21l-81.51-107v107H1300V205.9h34.15L1413,309.53V205.9h36.55V374.21Z"/><path class="cls-1" d="M1561.57,377.1c-49.53,0-86.32-38.23-86.32-86.56v-.48c0-47.85,36.07-87,87.76-87,31.74,0,50.74,10.58,66.36,26l-23.56,27.17c-13-11.79-26.21-19-43-19-28.37,0-48.81,23.56-48.81,52.42v.48c0,28.85,20,52.9,48.81,52.9,19.24,0,31-7.7,44.24-19.72l23.56,23.8C1613.27,365.56,1594,377.1,1561.57,377.1Z"/><path class="cls-1" d="M1652.93,374.21V205.9h127v32.94h-90.17V273h79.35v32.94h-79.35v35.34h91.37v32.94Z"/><path class="cls-2" d="M1889.69,240v35.73h80.1v33.58h-80.1v65h-36.93V206.45h127.82V240Z"/><path class="cls-2" d="M2084.43,377.21c-51.8,0-89-38.61-89-86.34v-.48c0-47.73,37.65-86.82,89.46-86.82s89,38.61,89,86.34v.48C2173.88,338.11,2136.23,377.21,2084.43,377.21Zm50.84-86.82c0-28.78-21.11-52.76-50.84-52.76s-50.36,23.5-50.36,52.28v.48c0,28.78,21.1,52.76,50.85,52.76s50.36-23.5,50.36-52.29Z"/><path class="cls-2" d="M2301.47,374.33l-36-53.72h-29v53.72h-36.94V206.45h76.75c39.57,0,63.31,20.87,63.31,55.4v.48c0,27.1-14.63,44.13-36,52l41,60Zm.72-110.56c0-15.83-11-24-29-24h-36.69V288h37.41c18,0,28.3-9.59,28.3-23.75Z"/><polygon class="cls-3" points="1852.55 206.16 1852.55 240.16 1980.6 240.16 1980.6 206.16 1852.55 206.16 1852.55 206.16"/><path class="cls-4" d="M2134.64,290.08h38.62v-.48c0-47.72-37.18-86.34-89-86.34s-89.46,39.09-89.46,86.82h38.62v-.48c0-28.78,20.62-52.28,50.36-52.28s50.84,24,50.84,52.76Z"/><polygon class="cls-4" points="2199.55 239.81 2199.55 373.58 2237.03 373.58 2237.03 239.81 2199.55 239.81 2199.55 239.81"/><path class="cls-5" d="M2555.45,374.33l-15.35-37.66h-71l-15.35,37.66h-37.65l72-169.08h34.05l71.95,169.08Zm-50.85-124.71-22.3,54.44h44.61Z"/><path class="cls-5" d="M2612.77,374.33V206.45h36.93v134.3h83.7v33.58Z"/><path class="cls-5" d="M2754,374.33V206.45H2791v134.3h83.7v33.58Z"/><polygon class="cls-6" points="2613.35 340.62 2613.35 374.62 2733.41 374.62 2733.41 340.62 2613.35 340.62 2613.35 340.62"/><polygon class="cls-6" points="2754.22 205.63 2754.22 373.58 2791.35 373.58 2791.35 205.63 2754.22 205.63 2754.22 205.63"/><polygon class="cls-6" points="2482.21 304.01 2468.99 336.63 2539.78 336.63 2527.11 304.01 2482.21 304.01 2482.21 304.01"/><rect class="cls-7" x="681.19" y="0.1" width="9" height="377"/><path class="cls-7" d="M.7,237.56H23.88c16.54,0,26.44,10.05,26.44,26.74,0,17.67-10,27.19-26.44,27.19H.7Zm14,41.84h6.64C32,279.18,36.27,275,36.27,264.22c0-9.82-5.29-14.57-14.88-14.57H14.74Z"/><path class="cls-7" d="M66.83,275c.22,5.36,3.32,8.91,8.76,8.91,3.09,0,6.11-1.43,7.32-4.3h12c-2.34,9.06-10.73,13-19.49,13-12.76,0-21.45-7.71-21.45-20.84,0-12,9.59-20.61,21.14-20.61,14,0,21.07,10.57,20.47,23.86Zm15.94-7.18c-.23-4.38-3.33-8-7.63-8-4.53,0-7.55,3.24-8.3,8Z"/><path class="cls-7" d="M100.49,252.29h12.24v4.53h.15a12.53,12.53,0,0,1,10.8-5.66c12.31,0,17.52,10.57,17.52,21.59,0,10.19-5.44,19.86-16.54,19.86a13.13,13.13,0,0,1-11.18-5.36h-.15v17.37H100.49Zm12.39,19.18c0,6.87,2,11.33,7.78,11.33s7.7-6,7.7-11.33c0-5-2-10.5-7.63-10.5C117.26,261,112.88,263.39,112.88,271.47Z"/><path class="cls-7" d="M145.88,264.38a12.06,12.06,0,0,1,6.12-10.5c3.48-2,8-2.72,12.46-2.72,9.29,0,18.28,2,18.28,13.14v17.14c0,3.32,0,6.95,1.51,10H171.33a15.69,15.69,0,0,1-.75-3.7c-3.32,3.47-8.23,4.83-12.91,4.83-7.48,0-13.37-3.77-13.37-11.86,0-12.76,13.9-11.78,22.81-13.59,2.19-.45,3.4-1.2,3.4-3.62,0-2.94-3.55-4.08-6.19-4.08-3.55,0-5.82,1.59-6.42,4.92Zm16.62,20.32c6.12,0,8.15-3.48,7.86-11.56-1.81,1.13-5.14,1.36-7.93,2.11s-5.29,1.89-5.29,5S159.63,284.69,162.5,284.69Z"/><path class="cls-7" d="M190.07,252.29h12.46v6.87h.15c1.89-5,6.27-7.62,11.78-7.62a13.89,13.89,0,0,1,3,.3v11.71a18,18,0,0,0-4.91-.75c-6.34,0-9.66,4.38-9.66,9.29v19.4H190.07Z"/><path class="cls-7" d="M245.8,260.6h-7.93v17.82c0,3.1,1.81,3.78,4.61,3.78,1.06,0,2.19-.15,3.32-.15v9.44c-2.34.08-4.68.38-7,.38-11,0-13.75-3.17-13.75-13.82V260.6h-6.5v-8.31H225V240.43h12.84v11.86h7.93Z"/><path class="cls-7" d="M250.76,252.29h12.46v5.36h.15a13.06,13.06,0,0,1,11.25-6.49c4.91,0,9.29,1.58,11.4,6.33,3.1-4.15,6.95-6.33,12.24-6.33,12.46,0,13.82,9.44,13.82,16.92v23.41H299.24v-23c0-4.23-2-6.72-5.36-6.72-5.51,0-6,4.23-6,10.57v19.18H275V269.2c0-4.61-1.36-7.47-4.83-7.47-4.61,0-6.57,2.65-6.57,10.65v19.1H250.76Z"/><path class="cls-7" d="M330,275c.23,5.36,3.32,8.91,8.76,8.91,3.1,0,6.12-1.43,7.33-4.3h12c-2.34,9.06-10.72,13-19.48,13-12.76,0-21.45-7.71-21.45-20.84,0-12,9.59-20.61,21.14-20.61,14,0,21.07,10.57,20.46,23.86ZM346,267.85c-.23-4.38-3.32-8-7.63-8-4.53,0-7.55,3.24-8.31,8Z"/><path class="cls-7" d="M363.71,252.29h12.46v5.36h.15c2.34-4,7.63-6.49,12.31-6.49,13.06,0,14.12,9.51,14.12,15.18v25.14H389.91v-19c0-5.36.61-10.8-6.42-10.8-4.83,0-6.95,4.08-6.95,8.38v21.38H363.71Z"/><path class="cls-7" d="M433,260.6H425v17.82c0,3.1,1.81,3.78,4.61,3.78,1.05,0,2.19-.15,3.32-.15v9.44c-2.34.08-4.68.38-7,.38-10.95,0-13.74-3.17-13.74-13.82V260.6h-6.5v-8.31h6.5V240.43H425v11.86H433Z"/><path class="cls-7" d="M478.21,251.16c12.16,0,20.69,9,20.69,20.76s-8.54,20.69-20.69,20.69-20.62-8.91-20.62-20.69S466,251.16,478.21,251.16Zm0,31.64c6,0,7.86-5.89,7.86-10.88s-1.89-11-7.86-11-7.78,6-7.78,11S472.24,282.8,478.21,282.8Z"/><path class="cls-7" d="M506.15,260.6H500v-8.31h6.19c0-11.25,3.92-14.73,14.88-14.73,2,0,4.15.16,6.19.23v9.06a28,28,0,0,0-3.47-.22c-2.95,0-4.76.38-4.76,3.93v1.74h7.7v8.31H519v30.88H506.15Z"/><path class="cls-7" d="M.7,320.53h43v11.25H14.74v9.45H41.17V352.1H14.74v10.28H44.42v12.08H.7Z"/><path class="cls-7" d="M89.1,374.46H76.87v-4.53h-.15a12.53,12.53,0,0,1-10.8,5.66C53.61,375.59,48.4,365,48.4,354c0-10.2,5.44-19.86,16.54-19.86a13.11,13.11,0,0,1,11.18,5.36h.15v-19H89.1Zm-27.86-20c0,5.36,2,11.32,7.85,11.32,6.26,0,7.63-6,7.63-10.95,0-5.67-2-10.87-7.63-10.87C63.2,344,61.24,349.46,61.24,354.45Z"/><path class="cls-7" d="M135.3,374.46H122.84v-5.36h-.15a14.44,14.44,0,0,1-11.93,6.49c-11.25,0-14.5-6.49-14.5-16.76V335.27H109.1V358c0,5.21,2.26,7,6.34,7,2.8,0,7-1.82,7-8.76v-21H135.3Z"/><path class="cls-7" d="M168,349.61a6,6,0,0,0-6.27-5.66c-7.18,0-8.31,6.12-8.31,11.55,0,5.06,2.19,10.27,7.63,10.27,4.45,0,6.72-2.57,7.33-6.72h12.46c-1.13,10.5-9.29,16.54-19.71,16.54-11.78,0-20.54-8.08-20.54-20.08,0-12.46,7.93-21.37,20.54-21.37,9.74,0,18.43,5.14,19.33,15.48Z"/><path class="cls-7" d="M185.15,347.35a12.06,12.06,0,0,1,6.12-10.5c3.48-2,8-2.72,12.46-2.72,9.29,0,18.28,2,18.28,13.14v17.14c0,3.32,0,7,1.51,10H210.6a15.71,15.71,0,0,1-.75-3.7c-3.32,3.47-8.23,4.83-12.91,4.83-7.48,0-13.37-3.77-13.37-11.85,0-12.76,13.9-11.78,22.81-13.59,2.19-.45,3.4-1.2,3.4-3.62,0-2.95-3.55-4.08-6.19-4.08-3.55,0-5.82,1.58-6.42,4.91Zm16.62,20.32c6.12,0,8.15-3.48,7.86-11.56-1.81,1.13-5.14,1.36-7.93,2.11s-5.29,1.89-5.29,5S198.9,367.66,201.77,367.66Z"/><path class="cls-7" d="M252.25,343.57h-7.93v17.82c0,3.11,1.81,3.78,4.61,3.78,1.06,0,2.19-.15,3.32-.15v9.44c-2.34.08-4.68.38-7,.38-11,0-13.74-3.17-13.74-13.82V343.57H225v-8.3h6.5V323.41h12.84v11.86h7.93Z"/><path class="cls-7" d="M270.35,330.36H257.51v-9.82h12.84Zm-12.84,4.91h12.84v39.19H257.51Z"/><path class="cls-7" d="M296.32,334.13c12.16,0,20.69,9,20.69,20.76s-8.54,20.69-20.69,20.69-20.62-8.91-20.62-20.69S284.16,334.13,296.32,334.13Zm0,31.64c6,0,7.86-5.89,7.86-10.87S302.29,344,296.32,344s-7.78,6-7.78,10.95S290.35,365.77,296.32,365.77Z"/><path class="cls-7" d="M322.18,335.27h12.46v5.36h.15c2.35-4,7.63-6.49,12.31-6.49,13.06,0,14.13,9.51,14.13,15.18v25.14H348.38v-19c0-5.37.6-10.8-6.42-10.8-4.83,0-6.95,4.07-6.95,8.38v21.37H322.18Z"/><polygon class="cls-2" points="588.08 1.62 457.39 1.62 418.19 40.82 418.19 171.5 457.39 210.7 588.08 210.7 627.29 171.5 627.29 132.3 614.22 119.21 548.87 119.21 548.87 132.3 496.6 132.3 496.6 80.02 548.87 80.02 548.87 92.93 614.22 92.93 627.29 80.02 627.29 40.82 588.08 1.62"/><polygon class="cls-8" points="196.03 1.62 143.75 1.62 130.69 14.68 130.69 66.95 65.34 1.62 13.07 1.62 0 14.68 0 197.64 13.07 210.7 65.34 210.7 78.41 197.64 78.41 145.36 143.75 210.7 143.75 210.7 196.03 210.7 209.09 197.64 209.09 14.68 196.03 1.62"/><polygon class="cls-9" points="287.5 210.7 339.78 210.7 352.85 197.64 352.85 158.44 418.19 93.09 418.19 14.68 405.12 1.62 352.85 1.62 339.78 14.68 339.78 40.82 313.64 66.95 287.5 40.82 287.5 40.82 287.5 14.68 274.44 1.62 222.16 1.62 209.09 14.68 209.09 93.09 274.44 158.44 274.44 197.64 287.5 210.7"/></g></g></svg>
