<svg xmlns="http://www.w3.org/2000/svg" viewBox="0 0 185 185"><defs><style>.cls-1{fill:#fff;stroke-width:4px;}.cls-1,.cls-2,.cls-5{stroke:#231f20;}.cls-1,.cls-2,.cls-4,.cls-5{stroke-linejoin:round;}.cls-2,.cls-4{fill:none;}.cls-2,.cls-4,.cls-5{stroke-linecap:round;stroke-width:6px;}.cls-3{fill:#231f20;}.cls-4{stroke:#fff;}</style></defs><title>programming</title><g id="Layer_2" data-name="Layer 2"><g id="Layer_1-2" data-name="Layer 1"><rect class="cls-1" x="2" y="2" width="181" height="181"/><line class="cls-2" x1="51" y1="41" x2="65" y2="41"/><line class="cls-2" x1="51" y1="50" x2="74" y2="50"/><line class="cls-2" x1="60" y1="58" x2="80" y2="58"/><line class="cls-2" x1="51" y1="67" x2="65" y2="67"/><line class="cls-2" x1="60" y1="75" x2="97" y2="75"/><line class="cls-2" x1="51" y1="84" x2="65" y2="84"/><line class="cls-2" x1="51" y1="92" x2="68" y2="92"/><line class="cls-2" x1="51" y1="101" x2="68" y2="101"/><path class="cls-2" d="M40.8,104.24"/><rect class="cls-3" x="41" y="101" width="104" height="55"/><line class="cls-4" x1="51" y1="112" x2="74" y2="112"/><line class="cls-4" x1="51" y1="120" x2="71" y2="120"/><line class="cls-4" x1="51" y1="129" x2="65" y2="129"/><line class="cls-4" x1="51" y1="155" x2="65" y2="155"/><line class="cls-4" x1="51" y1="146" x2="65" y2="146"/><line class="cls-4" x1="51" y1="138" x2="88" y2="138"/><rect class="cls-2" x="41" y="30" width="104" height="126"/><polygon class="cls-2" points="117 39.01 117 47.13 121.06 43.07 117 39.01"/><polygon class="cls-5" points="135.09 40 131.05 40 129.03 43.5 131.05 47 135.09 47 137.11 43.5 135.09 40"/></g></g></svg>