<svg xmlns="http://www.w3.org/2000/svg" viewBox="0 0 185 185"><defs><style>.cls-1,.cls-3{fill:#fff;}.cls-1,.cls-2,.cls-3{stroke:#231f20;stroke-linejoin:round;}.cls-1{stroke-width:4px;}.cls-2{fill:none;}.cls-2,.cls-3{stroke-linecap:round;stroke-width:6px;}</style></defs><title>prototyping</title><g id="Layer_2" data-name="Layer 2"><g id="Layer_1-2" data-name="Layer 1"><rect class="cls-1" x="2" y="2" width="181" height="181"/><path class="cls-2" d="M157.4,107.85A75,75,0,0,1,54.07,132.08,60,60,0,0,1,34.68,49.42a48,48,0,0,1,66.13-15.51,38.42,38.42,0,0,1,12.41,52.91A30.74,30.74,0,0,1,70.9,96.74,24.59,24.59,0,0,1,63,62.88,19.67,19.67,0,0,1,90,56.53,15.74,15.74,0,0,1,95.13,78.2a12.59,12.59,0,0,1-17.34,4.07,10.07,10.07,0,0,1-3.25-13.87"/><polyline class="cls-2" points="113.95 125.22 98.63 142.19 116.94 155.21"/><polyline class="cls-2" points="43.63 56.4 42.66 39.46 23.78 45.57"/><polyline class="cls-2" points="110.54 59.96 119.34 65.82 126.25 56.76"/><circle class="cls-3" cx="159" cy="108" r="14"/></g></g></svg>