<svg xmlns="http://www.w3.org/2000/svg" viewBox="0 0 24 16"><title>icon-resources</title><g id="Layer_2" data-name="Layer 2"><g id="Layer_1-2" data-name="Layer 1"><path d="M17,8l-4.56-2a2,2,0,0,0-.64-.17l-.45,0L10.12,4.75,10.44,4l1.65.12.34.29a2.15,2.15,0,0,0,.56.34l2,.86Zm1.26,0L11.35,0h1.31A3.05,3.05,0,0,1,15,1.07L21,8ZM15.68,3a.24.24,0,0,0,0-.33L14.66,1.47a.24.24,0,0,0-.33,0,.23.23,0,0,0,0,.33l1,1.23A.24.24,0,0,0,15.68,3ZM3,8H5.22L6.72,5.7a1,1,0,0,1,.71-.45,2,2,0,0,0,1.43-3l-1,1.48a1.47,1.47,0,0,1-1.44-.94l1-1.48a2,2,0,0,0-1.9.88,1.92,1.92,0,0,0-.24,1.62,1,1,0,0,1-.13.83Zm18,2H3a3,3,0,0,0,0,6H21a3,3,0,0,0,0-6ZM3,14a1,1,0,1,1,1-1A1,1,0,0,1,3,14Zm18,0a1,1,0,1,1,1-1A1,1,0,0,1,21,14Z"/></g></g></svg>